<svg width="126" height="125" viewBox="0 0 126 125" fill="none" xmlns="http://www.w3.org/2000/svg">
<path d="M113.618 72.1733L121.598 75.4377L121.438 76.6875L112.173 72.652L112.344 71.3189L120.453 70.041L112.928 66.75L113.1 65.403L123.082 63.8282L122.915 65.1336L114.376 66.2436L122.338 69.6468L122.177 70.9106L113.618 72.1733Z" fill="#4BDEB2"/>
<path d="M117.403 85.1038L119.003 80.4724L115.92 79.4072L114.411 83.7739L113.432 83.4356L114.941 79.0688L111.844 77.999L110.203 82.7495L109.197 82.4021L111.218 76.5533L120.388 79.7215L118.408 85.4512L117.403 85.1038Z" fill="#4BDEB2"/>
<path d="M114.666 90.7117L115.818 88.5492L112.963 87.0292L111.811 89.1917C111.504 89.7683 111.383 90.2538 111.448 90.6479C111.509 91.0503 111.799 91.3897 112.318 91.6661C112.796 91.9205 113.235 91.9589 113.636 91.7813C114.033 91.612 114.376 91.2554 114.666 90.7117ZM110.753 88.9453L112.036 86.5356L109.12 84.9827L107.837 87.3923C107.534 87.9608 107.417 88.4484 107.486 88.8551C107.551 89.2702 107.846 89.6181 108.374 89.8988C108.843 90.1489 109.287 90.1791 109.705 89.9894C110.127 89.8123 110.477 89.4643 110.753 88.9453ZM107.814 90.9492C106.982 90.5061 106.506 89.9406 106.386 89.2528C106.266 88.5649 106.469 87.7267 106.996 86.7382L108.739 83.4635L117.303 88.0237L115.763 90.9153C115.223 91.9286 114.632 92.5919 113.99 92.9052C113.347 93.2186 112.605 93.1515 111.765 92.7041C111.32 92.4672 110.988 92.1684 110.767 91.8079C110.551 91.4599 110.439 91.1042 110.431 90.7408C110.07 91.0029 109.671 91.1659 109.235 91.2299C108.807 91.2983 108.334 91.2047 107.814 90.9492Z" fill="#4BDEB2"/>
<path d="M108.012 100.679L110.832 96.9485L108.173 94.9396L105.472 98.5138L104.657 97.8976L107.358 94.3234L103.929 91.7321L104.638 90.7939L112.378 96.6433L108.85 101.312L108.012 100.679Z" fill="#4BDEB2"/>
<path d="M106.877 103.511L106.065 104.322L99.957 98.2144L96.8288 101.343L96.0764 100.59L100.016 96.6502L106.877 103.511Z" fill="#4BDEB2"/>
<path d="M98.6397 111.05C98.0108 111.519 97.4106 111.791 96.8391 111.867C96.2601 111.949 95.7153 111.889 95.2046 111.688C94.6919 111.499 94.2123 111.199 93.7658 110.786C93.3119 110.38 92.8926 109.918 92.5081 109.401C92.1124 108.87 91.7859 108.322 91.5285 107.757C91.2692 107.205 91.1237 106.65 91.0922 106.092C91.0587 105.547 91.1605 105.011 91.3977 104.486C91.6404 103.968 92.0649 103.483 92.6714 103.032C93.2704 102.586 93.8528 102.321 94.4187 102.237C94.9827 102.167 95.5248 102.223 96.0449 102.406C96.5631 102.602 97.053 102.9 97.5144 103.301C97.974 103.716 98.4016 104.189 98.7973 104.72C99.1818 105.237 99.5074 105.768 99.7742 106.314C100.034 106.866 100.184 107.411 100.225 107.951C100.264 108.504 100.165 109.043 99.9275 109.568C99.6904 110.094 99.2611 110.588 98.6397 111.05ZM93.2727 103.98C92.8235 104.315 92.5272 104.675 92.384 105.061C92.2332 105.452 92.1879 105.852 92.248 106.261C92.3137 106.678 92.4596 107.093 92.6858 107.506C92.9046 107.925 93.156 108.326 93.4402 108.707C93.7412 109.112 94.0619 109.472 94.4023 109.789C94.7408 110.119 95.0983 110.365 95.4748 110.526C95.8494 110.701 96.2365 110.768 96.6361 110.727C97.0413 110.693 97.4573 110.517 97.884 110.199L98.03 110.091C98.4568 109.773 98.7446 109.425 98.8934 109.047C99.0404 108.681 99.0875 108.291 99.0349 107.877C98.9804 107.475 98.8475 107.062 98.6362 106.638C98.4231 106.226 98.166 105.818 97.8651 105.414C97.5809 105.032 97.2733 104.674 96.9422 104.338C96.6037 104.008 96.2444 103.752 95.8642 103.57C95.4897 103.395 95.097 103.321 94.6862 103.347C94.2755 103.374 93.8492 103.551 93.4075 103.88L93.2727 103.98Z" fill="#4BDEB2"/>
<path d="M81.6788 110.909L83.096 119.414L81.9488 119.935L80.5124 109.932L81.7361 109.376L87.0856 115.604L85.93 107.472L87.1665 106.91L93.7528 114.575L92.5546 115.119L87.1219 108.438L88.4117 117L87.2517 117.527L81.6788 110.909Z" fill="#4BDEB2"/>
<path d="M71.3741 121.016L73.1637 120.773L72.1418 113.24L70.2689 113.494C69.6955 113.572 69.2351 113.719 68.8878 113.936C68.5324 114.163 68.2703 114.453 68.1015 114.806C67.9247 115.169 67.8261 115.587 67.8056 116.061C67.7758 116.536 67.8005 117.065 67.8795 117.647C68.0527 118.923 68.4217 119.839 68.9867 120.393C69.5425 120.949 70.3383 121.156 71.3741 121.016ZM74.4563 121.657L71.5153 122.056C70.091 122.25 68.9907 121.985 68.2144 121.261C67.4393 120.547 66.9439 119.394 66.7281 117.803C66.6314 117.091 66.6124 116.43 66.6708 115.819C66.7212 115.219 66.8748 114.685 67.1315 114.217C67.3883 113.748 67.7599 113.364 68.2465 113.062C68.733 112.761 69.3601 112.558 70.1278 112.454L73.1521 112.044L74.4563 121.657Z" fill="#4BDEB2"/>
<path d="M58.3614 121.504L63.26 121.618L63.3356 118.357L58.7168 118.25L58.7408 117.214L63.3596 117.321L63.4354 114.046L58.4108 113.929L58.4354 112.866L64.6218 113.009L64.3971 122.708L58.3367 122.568L58.3614 121.504Z" fill="#4BDEB2"/>
<path d="M54.0556 113.627L49.7744 121.241L48.5901 121.025L53.6401 112.085L55.0173 112.337L56.5914 122.487L55.3658 122.263L54.0556 113.627Z" fill="#4BDEB2"/>
<path d="M43.9754 110.615C44.9355 111.005 45.2482 111.947 44.9011 112.803C44.5539 113.66 43.673 114.118 42.7129 113.729C41.7528 113.34 41.4401 112.397 41.7873 111.541C42.1344 110.685 43.0153 110.226 43.9754 110.615Z" fill="#4BDEB2"/>
<path d="M33.7985 114.045L32.7201 113.266L35.9781 105.5L35.9554 105.483L29.3374 110.824L28.2022 110.005L31.1877 102.042L31.165 102.026L24.8195 107.563L23.7411 106.785L31.6091 100.119L32.7442 100.938L29.5942 109.249L29.6169 109.265L36.5129 103.659L37.6481 104.478L33.7985 114.045Z" fill="#4BDEB2"/>
<path d="M24.5144 101.242L21.0431 97.4543L21.8689 96.6976L25.3402 100.486L27.9206 98.121L23.8818 93.7137L24.7075 92.957L29.5976 98.2933L22.2176 105.056L17.441 99.8437L18.2668 99.087L22.1921 103.37L24.5144 101.242Z" fill="#4BDEB2"/>
<path d="M13.9575 90.1908C14.9969 89.5294 15.8602 89.843 16.5398 90.3896L16.5635 90.3745C16.1534 89.391 16.3456 88.2066 17.6095 87.4025C19.1686 86.4104 20.7728 86.9496 21.8851 88.6977L24.1998 92.3357L15.7544 97.7093L13.59 94.3075C12.4927 92.583 12.6464 91.025 13.9575 90.1908ZM18.6098 94.3991L17.0165 91.895C16.2499 90.6902 15.5197 90.6902 14.752 91.1787C13.9842 91.6672 13.7383 92.4542 14.3545 93.4228L16.023 96.045L18.6098 94.3991ZM19.5547 93.7979L22.5785 91.8739L20.8725 89.1926C20.0082 87.8343 19.0773 87.962 18.2859 88.4655C17.3764 89.0442 17.1347 89.9945 17.6984 90.8804L19.5547 93.7979Z" fill="#4BDEB2"/>
<path d="M17.963 81.4432L8.41886 84.4612L7.32561 81.004C6.49406 78.3743 7.69193 76.2189 10.7621 75.248C13.8322 74.2772 16.0383 75.3563 16.8698 77.9859L17.963 81.4432ZM9.10684 82.9222L16.5153 80.5795L15.8019 78.3236C15.0337 75.8942 13.0108 75.8584 11.142 76.4494C9.27319 77.0403 7.62526 78.2369 8.39349 80.6663L9.10684 82.9222Z" fill="#4BDEB2"/>
<path d="M9.52504 72.3688L8.85389 67.2748L9.96429 67.1285L10.6354 72.2225L14.1055 71.7653L13.3246 65.8386L14.435 65.6923L15.3804 72.8682L5.45621 74.1758L4.5327 67.1664L5.6431 67.0201L6.40203 72.7803L9.52504 72.3688Z" fill="#4BDEB2"/>
<path d="M8.70411 60.7921C9.35066 58.5613 9.78509 57.107 12.0654 57.1951C13.5203 57.2513 14.8357 58.3808 14.7379 60.913C14.6466 63.2772 13.3168 65.0612 11.0171 65.1125L11.0657 63.8535C12.4421 63.7665 13.5377 62.9682 13.6188 60.8697C13.6858 59.135 12.9121 58.4887 12.0168 58.4541C10.6458 58.4012 10.3654 59.1329 9.76132 61.3513C9.35378 62.8347 8.76702 64.6053 6.82247 64.5302C5.24165 64.4692 4.23943 63.2116 4.32477 61.0012C4.40688 58.8748 5.55533 57.4341 7.63226 57.3461L7.58365 58.6052C6.23363 58.7352 5.50498 59.4636 5.44394 61.0445C5.38938 62.4574 5.90581 63.2339 6.73119 63.2658C8.0602 63.3171 8.28366 62.2469 8.70411 60.7921Z" fill="#4BDEB2"/>
<path d="M5.05306 54.7396L5.25113 53.4953L15.1367 55.0689L14.9386 56.3132L5.05306 54.7396Z" fill="#4BDEB2"/>
<path d="M10.7366 44.0917C9.28534 43.9525 8.30525 44.8519 7.86028 46.2969C7.15987 48.5715 8.96389 50.1817 10.7568 50.7338C12.5631 51.29 14.878 51.2411 15.6196 48.8327C16.147 47.1201 15.3486 45.3361 13.5557 44.784L12.5957 47.9016L11.5253 47.572L12.8561 43.2502L17.8335 44.7829L17.5863 45.5857L16.1113 45.571L16.1031 45.5977C16.8841 46.6292 17.1432 47.6905 16.69 49.1623C15.8331 51.9454 13.2761 52.8279 10.386 51.938C7.5093 51.0522 5.9741 48.6165 6.78988 45.9673C7.53561 43.5455 9.18474 42.6617 11.1074 42.8875L10.7366 44.0917Z" fill="#4BDEB2"/>
<path d="M18.2821 43.6903L9.46414 38.9527L10.193 37.5961L19.8225 37.096L19.8357 37.0714L12.5717 33.1687L13.1681 32.0587L21.986 36.7963L21.2571 38.1529L11.6523 38.6662L11.6391 38.6909L18.8784 42.5803L18.2821 43.6903Z" fill="#4BDEB2"/>
<path d="M18.9393 31.2269L22.126 27.1965L23.0045 27.8912L19.8179 31.9216L22.5634 34.0924L26.271 29.403L27.1496 30.0977L22.6605 35.7754L14.8083 29.567L19.1933 24.0211L20.0718 24.7157L16.4684 29.2733L18.9393 31.2269Z" fill="#4BDEB2"/>
<path d="M27.821 29.3747L21.1119 21.9458L24.1251 19.2246C25.5901 17.9016 27.2903 17.7998 28.4819 19.1194C29.4484 20.1896 29.4742 21.2416 28.841 22.1906L28.8598 22.2114C30.8027 21.0416 32.8367 24.5054 33.3338 24.2829L33.3901 24.3453L32.3822 25.2554C31.7786 25.2346 30.0549 21.9055 28.1743 23.6039L26.0443 25.5275L28.7561 28.5302L27.821 29.3747ZM22.7977 21.9325L25.2937 24.6963L27.1535 23.0167C27.9224 22.3223 28.8042 21.3561 27.6407 20.0678C26.4771 18.7794 25.4264 19.5585 24.6575 20.2529L22.7977 21.9325Z" fill="#4BDEB2"/>
<path d="M36.5105 19.0133C35.6185 19.5402 34.6795 19.2169 34.2096 18.4213C33.7396 17.6258 33.9096 16.6473 34.8015 16.1204C35.6935 15.5934 36.6325 15.9168 37.1025 16.7123C37.5725 17.5079 37.4025 18.4864 36.5105 19.0133Z" fill="#4BDEB2"/>
<path d="M39.9881 8.758L41.2621 8.37622L45.441 15.6884L45.4678 15.6803L45.2585 7.17862L46.5996 6.77674L51.1003 13.9925L51.1272 13.9844L50.596 5.57914L51.87 5.19735L52.3698 15.4974L51.0287 15.8993L46.3524 8.34156L46.3256 8.3496L46.5763 17.2335L45.2352 17.6354L39.9881 8.758Z" fill="#4BDEB2"/>
<path d="M55.9845 9.11627L61.104 8.68084L61.199 9.79681L56.0794 10.2322L56.3761 13.7197L62.3326 13.213L62.4275 14.329L55.2155 14.9424L54.3672 4.96842L61.4118 4.36925L61.5067 5.48522L55.7176 5.97761L55.9845 9.11627Z" fill="#4BDEB2"/>
<path d="M71.397 7.50203C71.2831 8.72875 70.5065 9.21908 69.6581 9.42154L69.6555 9.44942C70.6842 9.72768 71.5027 10.6051 71.3642 12.0967C71.1934 13.9368 69.7847 14.8746 67.7216 14.6831L63.428 14.2846L64.3531 4.31742L68.3679 4.69005C70.4031 4.87895 71.5406 5.95468 71.397 7.50203ZM65.2209 8.60196L68.1762 8.87625C69.5981 9.00822 70.0453 8.43109 70.1294 7.52498C70.2135 6.61888 69.742 5.94241 68.5989 5.83631L65.5042 5.54908L65.2209 8.60196ZM65.1174 9.71716L64.7862 13.2858L67.9506 13.5795C69.5537 13.7283 70.0229 12.9142 70.1096 11.9802C70.2092 10.9068 69.6061 10.1338 68.5606 10.0367L65.1174 9.71716Z" fill="#4BDEB2"/>
<path d="M77.3807 10.5415C79.4055 11.6792 80.7226 12.4336 80.1174 14.6338C79.7312 16.0377 78.3316 17.0612 75.8884 16.3891C73.6071 15.7616 72.173 14.0603 72.6469 11.8094L73.8618 12.1436C73.6329 13.5036 74.1606 14.7523 76.1854 15.3092C77.8593 15.7696 78.6648 15.1636 78.9025 14.2997C79.2664 12.9768 78.6178 12.537 76.5954 11.4435C75.2438 10.7087 73.6534 9.73401 74.1695 7.8577C74.5891 6.33236 76.0419 5.643 78.1747 6.22966C80.2265 6.79404 81.3678 8.24052 80.9802 10.2829L79.7653 9.9487C79.9463 8.60456 79.403 7.72913 77.8777 7.30955C76.5143 6.93453 75.6406 7.26047 75.4215 8.05689C75.0688 9.33926 76.0599 9.80065 77.3807 10.5415Z" fill="#4BDEB2"/>
<path d="M84.0903 8.35128L85.2562 8.82908L81.4604 18.0915L80.2945 17.6137L84.0903 8.35128Z" fill="#4BDEB2"/>
<path d="M85.9056 20.1853L90.257 12.433L87.3514 10.8021L87.8996 9.82544L94.8095 13.704L94.2613 14.6806L91.3557 13.0497L87.0044 20.802L85.9056 20.1853Z" fill="#4BDEB2"/>
<path d="M95.0428 19.1223L99.0499 22.3383L98.3489 23.2118L94.3418 19.9958L92.1511 22.7254L96.8133 26.4672L96.1123 27.3406L90.4674 22.8103L96.7328 15.0036L102.247 19.4288L101.546 20.3023L97.0145 16.6657L95.0428 19.1223Z" fill="#4BDEB2"/>
<path d="M106.12 29.8875C107.048 32.0166 107.642 33.413 105.832 34.8021C104.677 35.6884 102.943 35.6597 101.401 33.6493C99.9605 31.7721 99.8438 29.5501 101.58 28.0414L102.347 29.0411C101.344 29.9873 101.011 31.3014 102.289 32.9675C103.346 34.3449 104.354 34.3478 105.065 33.8024C106.154 32.9673 105.902 32.2252 104.949 30.1327C104.315 28.7311 103.635 26.9941 105.179 25.8095C106.434 24.8465 108.009 25.1737 109.355 26.9287C110.651 28.617 110.688 30.4591 109.146 31.8537L108.379 30.854C109.334 29.8915 109.43 28.8656 108.467 27.6104C107.606 26.4886 106.713 26.2212 106.057 26.7239C105.002 27.5335 105.514 28.4996 106.12 29.8875Z" fill="#4BDEB2"/>
<path d="M109.785 35.3928L112.199 39.9279L111.211 40.4543L108.796 35.9192L105.707 37.5643L108.516 42.8408L107.528 43.3672L104.126 36.9786L112.961 32.2736L116.284 38.514L115.296 39.0404L112.565 33.9122L109.785 35.3928Z" fill="#4BDEB2"/>
<path d="M109.094 48.4665C108.218 45.66 109.733 43.1342 112.606 42.2375C115.479 41.3408 118.148 42.5612 119.024 45.3677C119.9 48.1742 118.399 50.6959 115.525 51.5925C112.652 52.4892 109.97 51.273 109.094 48.4665ZM110.163 48.1328C110.914 50.5384 113.092 51.032 115.15 50.3897C117.208 49.7475 118.706 48.107 117.955 45.7014C117.204 43.2958 115.04 42.798 112.981 43.4403C110.923 44.0826 109.413 45.7272 110.163 48.1328Z" fill="#4BDEB2"/>
<path d="M114.119 58.6007C114.039 57.5677 114.743 56.8674 115.664 56.7962C116.585 56.725 117.389 57.3088 117.469 58.3417C117.549 59.3746 116.844 60.075 115.923 60.1462C115.002 60.2174 114.199 59.6336 114.119 58.6007Z" fill="#4BDEB2"/>
</svg>
