<svg width="114" height="114" viewBox="0 0 114 114" fill="none" xmlns="http://www.w3.org/2000/svg">
<path d="M101.727 65.4356C99.6976 65.1955 98.3603 63.8673 98.6743 61.2118C98.9883 58.5563 100.599 57.5766 102.628 57.8166L109.26 58.6008L109.112 59.8521L102.48 59.0679C100.868 58.8772 99.9904 59.6193 99.7866 61.3433C99.5827 63.0673 100.263 63.9936 101.875 64.1843L108.507 64.9685L108.359 66.2197L101.727 65.4356Z" fill="#4BDEB2"/>
<path d="M107.584 69.2984L107.257 70.515L97.5912 67.9116L97.9189 66.695L107.584 69.2984Z" fill="#4BDEB2"/>
<path d="M104.795 77.6106L96.8572 70.3839L97.261 69.3392L105.199 76.5659L104.795 77.6106Z" fill="#4BDEB2"/>
<path d="M94.2556 82.9601C92.4986 81.9157 91.8166 80.1586 93.183 77.86C94.5493 75.5614 96.4187 75.3208 98.1757 76.3652L103.916 79.7775L103.272 80.8606L97.5319 77.4483C96.1359 76.6185 95.0327 76.94 94.1457 78.4323C93.2587 79.9246 93.5034 81.0472 94.8994 81.877L100.64 85.2892L99.996 86.3723L94.2556 82.9601Z" fill="#4BDEB2"/>
<path d="M92.5278 87.8323L98.2951 88.7537L97.3575 89.7934L92.7338 88.9418L92.7245 88.9522L94.0385 93.4739L93.1009 94.5136L91.6111 88.8908L85.5077 87.9868L86.5391 86.8431L91.3937 87.7521L91.403 87.7417L89.9893 83.017L91.0206 81.8734L92.5278 87.8323Z" fill="#4BDEB2"/>
<path d="M82.6908 93.6043C83.5412 93.0127 84.5016 93.2656 85.0293 94.0241C85.5569 94.7826 85.46 95.771 84.6095 96.3626C83.759 96.9542 82.7987 96.7014 82.271 95.9428C81.7434 95.1843 81.8403 94.1959 82.6908 93.6043Z" fill="#4BDEB2"/>
<path d="M79.8346 104.063L78.5797 104.504L74.0647 97.3943L74.0383 97.4036L74.6434 105.886L73.3225 106.35L68.4905 99.352L68.4641 99.3613L69.3863 107.733L68.1314 108.173L67.1523 97.9079L68.4732 97.444L73.4966 104.776L73.523 104.766L72.8586 95.9037L74.1795 95.4398L79.8346 104.063Z" fill="#4BDEB2"/>
<path d="M63.9833 104.276L58.874 104.819L58.7557 103.705L63.8649 103.163L63.4951 99.6822L57.5505 100.314L57.4322 99.2001L64.6297 98.4353L65.6874 108.389L58.657 109.136L58.5386 108.023L64.3161 107.409L63.9833 104.276Z" fill="#4BDEB2"/>
<path d="M48.5756 105.99C48.692 104.764 49.4696 104.275 50.3184 104.074L50.321 104.046C49.2929 103.766 48.4763 102.887 48.6178 101.396C48.7923 99.5559 50.203 98.621 52.2657 98.8167L56.5584 99.224L55.6129 109.189L51.5989 108.808C49.564 108.615 48.4288 107.537 48.5756 105.99ZM54.7539 104.903L51.7992 104.623C50.3776 104.488 49.9291 105.064 49.8432 105.97C49.7572 106.876 50.2273 107.553 51.3702 107.662L54.4643 107.955L54.7539 104.903ZM54.8597 103.788L55.1983 100.22L52.0345 99.9198C50.4317 99.7677 49.9607 100.581 49.8721 101.515C49.7703 102.588 50.3719 103.362 51.4172 103.461L54.8597 103.788Z" fill="#4BDEB2"/>
<path d="M44.2969 97.4138L40.5128 106.681L37.1558 105.31C34.6025 104.268 33.7116 101.968 34.9289 98.9872C36.1462 96.0061 38.3866 95.0004 40.9399 96.0431L44.2969 97.4138ZM39.7697 105.168L42.707 97.9744L40.5165 97.0799C38.1576 96.1167 36.8363 97.6489 36.0954 99.4635C35.3545 101.278 35.2203 103.31 37.5792 104.273L39.7697 105.168Z" fill="#4BDEB2"/>
<path d="M31.8616 97.9924L27.5859 95.1433L28.2069 94.2112L32.4826 97.0604L34.4234 94.1478L29.4487 90.8328L30.0698 89.9008L36.093 93.9144L30.5423 102.244L24.6588 98.324L25.2799 97.392L30.1148 100.614L31.8616 97.9924Z" fill="#4BDEB2"/>
<path d="M22.845 91.0799C21.6241 89.1041 20.8369 87.8064 22.4316 86.1742C23.4492 85.1328 25.1692 84.9148 26.9817 86.6857C28.6741 88.3391 29.1053 90.5221 27.6009 92.2622L26.6997 91.3816C27.5584 90.3024 27.7011 88.9543 26.199 87.4868C24.9573 86.2736 23.959 86.4139 23.3329 87.0547C22.3741 88.0361 22.7287 88.7349 23.9689 90.6708C24.7958 91.968 25.7155 93.5909 24.3556 94.9828C23.25 96.1144 21.645 96.0142 20.0628 94.4683C18.5407 92.9812 18.2424 91.163 19.5702 89.5636L20.4715 90.4441C19.6624 91.5326 19.714 92.5617 20.8455 93.6672C21.8569 94.6554 22.7792 94.7932 23.3565 94.2024C24.286 93.2511 23.6421 92.3675 22.845 91.0799Z" fill="#4BDEB2"/>
<path d="M15.8654 89.6142L15.0904 88.6208L22.9828 82.4638L23.7579 83.4572L15.8654 89.6142Z" fill="#4BDEB2"/>
<path d="M12.0902 78.2267C10.9863 79.1791 10.9586 80.509 11.6951 81.8295C12.8544 83.9081 15.265 83.7177 16.9034 82.8039C18.554 81.8833 20.119 80.1769 18.8916 77.976C18.0187 76.411 16.1778 75.7546 14.5394 76.6684L16.1283 79.5172L15.1501 80.0628L12.9475 76.1135L17.4959 73.5767L17.905 74.3103L16.8747 75.3659L16.8883 75.3903C18.1736 75.5391 19.1196 76.0855 19.8697 77.4305C21.2881 79.9737 20.1582 82.4314 17.5172 83.9044C14.8884 85.3705 12.0672 84.796 10.717 82.375C9.48265 80.162 9.98413 78.3594 11.4765 77.1263L12.0902 78.2267Z" fill="#4BDEB2"/>
<path d="M17.0706 72.5255L7.47519 75.3765L7.03657 73.9003L13.5175 66.7607L13.5096 66.7339L5.60508 69.0825L5.24621 67.8747L14.8416 65.0237L15.2802 66.4999L8.82612 73.6315L8.8341 73.6583L16.7117 71.3177L17.0706 72.5255Z" fill="#4BDEB2"/>
<path d="M8.8186 63.0896L8.374 57.9709L9.4898 57.874L9.9344 62.9927L13.4213 62.6898L12.904 56.7343L14.0198 56.6374L14.6461 63.8482L4.67365 64.7144L4.06187 57.6709L5.17767 57.574L5.68042 63.3622L8.8186 63.0896Z" fill="#4BDEB2"/>
<path d="M14.0383 55.7213L4.08068 54.699L4.4953 50.6602C4.6969 48.6965 5.89116 47.4822 7.65986 47.6637C9.09432 47.811 9.81809 48.5749 9.98368 49.7037L10.0115 49.7066C10.6706 47.5365 14.5011 48.746 14.7211 48.2479L14.8047 48.2565L14.666 49.6074C14.2039 49.9962 10.6941 48.6789 10.4353 51.1997L10.1422 54.0546L14.167 54.4678L14.0383 55.7213ZM5.3235 53.56L9.02803 53.9403L9.28395 51.4474C9.38975 50.4168 9.39738 49.1087 7.67045 48.9314C5.94353 48.7542 5.68522 50.0365 5.57942 51.0671L5.3235 53.56Z" fill="#4BDEB2"/>
<path d="M13.7096 42.1791C13.3727 43.1588 12.4483 43.5219 11.5746 43.2214C10.7008 42.9209 10.1954 42.066 10.5323 41.0863C10.8693 40.1067 11.7936 39.7436 12.6674 40.0441C13.5412 40.3446 14.0466 41.1995 13.7096 42.1791Z" fill="#4BDEB2"/>
<path d="M9.76594 32.1132L10.5196 31.0173L18.3582 34.0974L18.3741 34.0743L12.8837 27.5798L13.677 26.4263L21.7061 29.2295L21.7219 29.2064L16.0412 22.9887L16.7948 21.8929L23.6384 29.6069L22.845 30.7604L14.4649 27.8007L14.449 27.8237L20.2112 34.5902L19.4179 35.7437L9.76594 32.1132Z" fill="#4BDEB2"/>
<path d="M22.451 22.5037L26.2492 19.0434L27.0034 19.8714L23.2053 23.3316L25.5624 25.9189L29.9815 21.893L30.7358 22.7209L25.3852 27.5954L18.6439 20.1957L23.8702 15.4344L24.6245 16.2623L20.3296 20.1751L22.451 22.5037Z" fill="#4BDEB2"/>
<path d="M33.6443 12.0923C34.2797 13.1478 33.9448 14.003 33.3816 14.6689L33.396 14.6929C34.3895 14.3073 35.5687 14.5289 36.3412 15.8123C37.2943 17.3955 36.7156 18.9858 34.9404 20.0544L31.2461 22.2783L26.0836 13.7022L29.538 11.6228C31.2892 10.5686 32.8429 10.7609 33.6443 12.0923ZM29.322 16.6388L31.8648 15.1081C33.0882 14.3716 33.1064 13.6417 32.637 12.862C32.1677 12.0824 31.387 11.817 30.4035 12.4091L27.7407 14.012L29.322 16.6388ZM29.8996 17.5983L31.748 20.6689L34.4707 19.0299C35.8501 18.1996 35.7455 17.2657 35.2617 16.4621C34.7058 15.5385 33.7618 15.2734 32.8622 15.8149L29.8996 17.5983Z" fill="#4BDEB2"/>
<path d="M38.3689 11.9888L42.577 10.4931L42.9521 11.5484L38.744 13.0441L40.2585 17.305L39.0713 17.7269L35.7188 8.29503L42.1167 6.02097L42.4918 7.07629L37.2811 8.92836L38.3689 11.9888Z" fill="#4BDEB2"/>
<path d="M45.0225 5.28528L46.2657 5.08035L47.7116 13.852L52.8917 12.9981L53.0739 14.1032L46.6506 15.162L45.0225 5.28528Z" fill="#4BDEB2"/>
<path d="M58.1517 14.3177C55.2137 14.2097 53.3358 11.9411 53.4464 8.93317C53.557 5.9252 55.5959 3.8147 58.5339 3.92273C61.472 4.03076 63.3504 6.2853 63.2398 9.29327C63.1292 12.3012 61.0897 14.4257 58.1517 14.3177ZM58.1929 13.1985C60.7112 13.2911 61.9014 11.4015 61.9806 9.24697C62.0599 7.09243 61.0111 5.13457 58.4928 5.04197C55.9745 4.94937 54.7848 6.82493 54.7056 8.97947C54.6263 11.134 55.6746 13.1059 58.1929 13.1985Z" fill="#4BDEB2"/>
<path d="M65.3691 4.41556L66.6451 4.79062L66.1583 13.1986L66.1851 13.2065L70.6478 5.96715L71.991 6.36196L71.8265 14.8647L71.8534 14.8726L75.9937 7.53849L77.2697 7.91355L72.0694 16.8185L70.7262 16.4237L70.9301 7.53854L70.9033 7.53065L66.2668 15.1129L64.9237 14.7181L65.3691 4.41556Z" fill="#4BDEB2"/>
<path d="M77.5431 19.348L83.2757 11.1421L86.2482 13.2186C88.5091 14.7981 88.8716 17.2372 87.0276 19.8769C85.1835 22.5166 82.7766 23.004 80.5156 21.4246L77.5431 19.348ZM83.6672 12.7818L79.2175 19.1515L81.1571 20.5064C83.2458 21.9656 84.8722 20.7621 85.9946 19.1553C87.1171 17.5486 87.6956 15.596 85.6068 14.1368L83.6672 12.7818Z" fill="#4BDEB2"/>
<path d="M89.8029 21.4826L93.3586 25.1915L92.5502 25.9666L88.9945 22.2577L86.4679 24.6798L90.605 28.9951L89.7965 29.7702L84.7875 24.5454L92.0133 17.618L96.906 22.7216L96.0975 23.4967L92.0768 19.3027L89.8029 21.4826Z" fill="#4BDEB2"/>
<path d="M98.1853 24.1788L98.9126 25.2924L93.1481 32.4681L93.1558 32.4798L102.043 30.0866L102.771 31.2001L92.4759 33.7431L91.718 32.5826L98.1853 24.1788Z" fill="#4BDEB2"/>
<path d="M99.148 40.9248C98.7974 39.95 99.2908 39.0881 100.16 38.7754C101.03 38.4627 101.959 38.8128 102.31 39.7877C102.66 40.7625 102.167 41.6244 101.297 41.9371C100.428 42.2498 99.4987 41.8997 99.148 40.9248Z" fill="#4BDEB2"/>
<path d="M102.558 55.0796C100.526 55.2956 98.9271 54.2969 98.6446 51.6379C98.362 48.9788 99.7149 47.6665 101.747 47.4505L108.388 46.7449L108.521 47.9979L101.881 48.7035C100.266 48.8751 99.5749 49.7932 99.7583 51.5195C99.9417 53.2458 100.81 53.9983 102.425 53.8267L109.066 53.121L109.199 54.374L102.558 55.0796Z" fill="#4BDEB2"/>
</svg>
