<svg width="20" height="10" viewBox="0 0 20 10" fill="none" xmlns="http://www.w3.org/2000/svg">
<path d="M18.6118 0.224199L9.99911 8.1941L1.38643 0.224199C1.23257 0.0815157 1.026 0.00163571 0.810858 0.0016357C0.595715 0.0016357 0.389285 0.0815157 0.235285 0.224199C0.160856 0.293501 0.101571 0.376219 0.061285 0.46751C0.0208564 0.558801 -2.87109e-08 0.656829 -3.30394e-08 0.755853C-3.73678e-08 0.854876 0.0208564 0.952903 0.061285 1.04419C0.101571 1.13548 0.160856 1.2182 0.235285 1.28751L9.39771 9.76779C9.55861 9.91667 9.77443 10 9.99911 10C10.2238 10 10.4396 9.91667 10.6005 9.76779L19.7629 1.28914C19.8379 1.21979 19.8976 1.13687 19.9383 1.04527C19.979 0.953679 20 0.855269 20 0.755852C20 0.656435 19.979 0.558025 19.9383 0.466431C19.8976 0.374838 19.8379 0.291917 19.7629 0.222562C19.609 0.0798792 19.4025 -3.55225e-08 19.1873 -3.55222e-08C18.9722 -3.5522e-08 18.7657 0.0798792 18.6118 0.222562L18.6118 0.224199Z" fill="#DBD5C7"/>
</svg>
